<svg xmlns="http://www.w3.org/2000/svg" viewBox="0 0 283.01 104.61"><defs><style>.cls-1{fill:#eb8963;}</style></defs><title>Logo-n</title><g id="Capa_2" data-name="Capa 2"><g id="Layer_1" data-name="Layer 1"><path d="M99.51,45.25V15.62C99.51,6,106.22,0,117.06,0c4.75,0,8.53,1.13,11.61,3.47a12.87,12.87,0,0,1,5.45,10.35c0,3.73-1.4,6.47-4.76,9.07,3.92,1.47,5.39,3.81,5.39,8.48V45.25H120.49V34c0-1.87-.14-2.54-.7-3.2a3.56,3.56,0,0,0-2.59-1.14h-.77V19h.35c2.59,0,4.12-1.27,4.12-3.34a3.28,3.28,0,0,0-3.42-3.33,3.14,3.14,0,0,0-2.94,1.8c-.49.93-.56,1.67-.56,4v27.1Z"/><path d="M158.8,45.25V31.44h-4.55V20.29h4.55v-3.6c0-2.54-1.12-3.94-3.22-3.94s-3.42,1.4-3.42,4.07V45.25h-14.4V17.09c0-5.08,1.32-8.68,4.33-11.88S150,0,155.37,0c10.84,0,17.9,6.94,17.9,17.55v27.7Z"/><path d="M176.49,45.25V.87H191.1c7.62,0,13.14,1.73,17.27,5.47a22.92,22.92,0,0,1,7.48,17.09c0,12.08-9.16,21.82-20.56,21.82H193.2V32.84H194a7.44,7.44,0,0,0,5.32-3.27A12.74,12.74,0,0,0,201,23.29c0-6.14-3.57-10-9.09-10h-1.12v32Z"/><path d="M217.59,45.25V.87h14.47V45.25Z"/><path d="M282.34,23.43c0,12.35-11,22.69-24.26,22.69-13.43,0-24.26-10.34-24.26-23S244.72,0,258,0C271.64,0,282.34,10.35,282.34,23.43Zm-33.77-.67A9.47,9.47,0,1,0,258,13.42,9.5,9.5,0,0,0,248.57,22.76Z"/><path class="cls-1" d="M156.82,68a3.87,3.87,0,0,0,2.33.43,3.14,3.14,0,0,0,1.5-.39,3.28,3.28,0,0,0,1-.9,4,4,0,0,0,.56-1.15,3.7,3.7,0,0,0,.16-1.13,2,2,0,0,0-.67-1.48,3.09,3.09,0,0,0-2.17-.52,3.4,3.4,0,0,0-1.59.41,3.53,3.53,0,0,0-1.1.91,3.81,3.81,0,0,0-.64,1.21,4.1,4.1,0,0,0-.18,1.27A1.9,1.9,0,0,0,156.82,68Z"/><path class="cls-1" d="M282.68,80.14a1.08,1.08,0,0,0-.87-.55,1.38,1.38,0,0,0-.83.32c-1.16,1.1-2.25,2.07-3.27,2.93-.43.35-.88.71-1.35,1s-.91.66-1.35.93a8.94,8.94,0,0,1-1.2.64,2.25,2.25,0,0,1-.95.22.94.94,0,0,1-.89-.55,2.9,2.9,0,0,1-.22-1.32,6.55,6.55,0,0,1,.24-1.47q.21-.86.54-1.83c.21-.65.45-1.31.71-2s.52-1.32.77-1.94.48-1.18.68-1.69.36-.93.46-1.26a1.12,1.12,0,0,0,0-.29,1.61,1.61,0,0,0-.59-1.25,2.45,2.45,0,0,0-1.63-.61,2.28,2.28,0,0,0-.76.12,7.1,7.1,0,0,0-.85.31c-.32.13-.64.27-1,.42a6.79,6.79,0,0,0-1.19-1,8,8,0,0,0-1.46-.69,6.2,6.2,0,0,0-2-.36,10.2,10.2,0,0,0-4.12.65,12,12,0,0,0-3.33,1.93,13.88,13.88,0,0,0-2.58,2.78,18.6,18.6,0,0,0-1.84,3.17c-.15.33-.26.65-.39,1L253,80q-1.2.48-3.24,1.5t-5.21,2.79l-.51.44,6.42-11.66a1.4,1.4,0,0,0,.2-.69,1.41,1.41,0,0,0-.62-1.16,3,3,0,0,0-1.8-.5,2.55,2.55,0,0,0-.9.13,5.74,5.74,0,0,0-.83.31c-.29.14-.56.29-.81.44a7.73,7.73,0,0,0-1.2-1A8.26,8.26,0,0,0,243,70a6.23,6.23,0,0,0-2-.33,10.69,10.69,0,0,0-4.2.83,13,13,0,0,0-4,2.5,13.25,13.25,0,0,0-3,4,11,11,0,0,0-.91,2.6h0c-.77.59-1.62,1.18-2.54,1.77S224.5,82.49,223.5,83a23.43,23.43,0,0,1-2.94,1.32,1.58,1.58,0,0,1-.58.28,2.29,2.29,0,0,1-.43,0,.51.51,0,0,1-.42-.16.56.56,0,0,1-.13-.37,1.55,1.55,0,0,1,.34-1c.18-.31.42-.72.74-1.2l1-1.61c.37-.59.75-1.21,1.13-1.87a21.61,21.61,0,0,0,1-2,15,15,0,0,0,.76-2.08,7.12,7.12,0,0,0,.3-2,2.64,2.64,0,0,0-.94-2.3,3.94,3.94,0,0,0-2.35-.68,9.89,9.89,0,0,0-2.65.39,18.83,18.83,0,0,0-2.71,1,15.25,15.25,0,0,0-2.41,1.41,8.47,8.47,0,0,0-1.67,1.52,3.57,3.57,0,0,0,.29-.85,4,4,0,0,0,.08-.74,1.8,1.8,0,0,0-.5-1.37,1.66,1.66,0,0,0-1.14-.47,2.74,2.74,0,0,0-1.57.56,4.07,4.07,0,0,0-1.34,1.7c-.28.62-.64,1.37-1.09,2.25l-1.4,2.83-.23.48a1.92,1.92,0,0,0-.42.26c-1.1,1.16-2.14,2.18-3.12,3.08-.42.38-.85.75-1.3,1.12s-.88.7-1.3,1a9.07,9.07,0,0,1-1.18.7,2.27,2.27,0,0,1-.93.26.94.94,0,0,1-.92-.5,3,3,0,0,1-.28-1.31,7.27,7.27,0,0,1,.16-1.48c.12-.58.27-1.2.46-1.86s.39-1.33.62-2,.45-1.35.67-2l.6-1.72c.18-.52.31-1,.4-1.28a2.23,2.23,0,0,0,0-.3,1.64,1.64,0,0,0-.66-1.21,2.38,2.38,0,0,0-1.65-.53,2.42,2.42,0,0,0-.76.15,6.89,6.89,0,0,0-.83.35c-.32.14-.62.3-.92.46a7.94,7.94,0,0,0-1.24-.91,9.07,9.07,0,0,0-1.5-.62,6.68,6.68,0,0,0-2.05-.26,10.32,10.32,0,0,0-4.08.84,12,12,0,0,0-3.24,2.1,14.06,14.06,0,0,0-2.44,2.89,18.62,18.62,0,0,0-1.68,3.25c-.11.28-.19.54-.28.8l-.3.26c-.62.52-1.26,1-1.94,1.57s-1.36,1-2.05,1.51-1.35.93-2,1.31a13.92,13.92,0,0,1-1.79.92,3.85,3.85,0,0,1-1.38.37.68.68,0,0,1-.62-.22,1.17,1.17,0,0,1-.18-.63,4.62,4.62,0,0,1,.24-1.46,14.29,14.29,0,0,1,.54-1.44c.41-1,.91-2.11,1.49-3.43s1.19-2.71,1.85-4.18l2-4.54c.7-1.55,1.37-3,2-4.48s1.29-2.76,1.87-4,1.07-2.25,1.49-3.09a11.54,11.54,0,0,0,.54-1.16,2.6,2.6,0,0,0,.2-1,1.61,1.61,0,0,0-.72-1.44,2.57,2.57,0,0,0-1.51-.41,3.39,3.39,0,0,0-1.62.47,3,3,0,0,0-1.25,1.49L166.2,73.16,164.55,77c-.45,1-.88,2.06-1.32,3.09-.12.15-.25.29-.39.45-.39.42-.8.86-1.26,1.32s-.94.92-1.45,1.37a14.43,14.43,0,0,1-1.58,1.21,9.85,9.85,0,0,1-1.61.88,4.1,4.1,0,0,1-1.54.38,2,2,0,0,1-1-.19,1,1,0,0,1-.39-.93,4.67,4.67,0,0,1,.2-1.47,15.79,15.79,0,0,1,.55-1.64c.22-.56.46-1.11.7-1.64s.47-1,.67-1.47.3-.7.42-1l.35-.83.41-.9c.15-.33.34-.72.57-1.19a2,2,0,0,0,.16-.49c0-.16,0-.32,0-.48a2.1,2.1,0,0,0-.78-1.63,2.5,2.5,0,0,0-1.77-.59,2.35,2.35,0,0,0-1.18.36,2.77,2.77,0,0,0-1,1.1c-.3.66-.57,1.29-.84,1.89s-.45,1-.65,1.49-.35.84-.43,1.07a20.76,20.76,0,0,1-.83,2q-.49,1-.93,2.16c-.08.19-.14.38-.21.57l-.77.71c-.49.43-1,.85-1.54,1.27A19.65,19.65,0,0,1,145.5,85a10.9,10.9,0,0,1-1.63.83,5.09,5.09,0,0,1-1.52.35,3.15,3.15,0,0,1-.93-.09c-.24-.08-.37-.3-.39-.65,0,0,0-.07,0-.11a.34.34,0,0,0,0-.1,5.85,5.85,0,0,1,.45-2,12.33,12.33,0,0,1,1-1.79c.37-.58.76-1.15,1.18-1.71A15.43,15.43,0,0,0,144.78,78a9.69,9.69,0,0,0,.83-1.93,6.58,6.58,0,0,0,.26-2.21,3.12,3.12,0,0,0-.42-1.51,2.65,2.65,0,0,0-1-.94,4.23,4.23,0,0,0-1.38-.45,8.19,8.19,0,0,0-4.21.45,9.65,9.65,0,0,0-2.1,1.15A13.32,13.32,0,0,0,135,74l-1.51,1.56c.74-1.37,1.43-2.74,2.1-4.13s1.32-2.79,2-4.19,1.31-2.8,2-4.19,1.34-2.76,2-4.13a7.53,7.53,0,0,0,.61-1.24,3.07,3.07,0,0,0,.24-1.25,1.43,1.43,0,0,0-.51-1A2.29,2.29,0,0,0,140.3,55a3.15,3.15,0,0,0-.94.19,4.1,4.1,0,0,0-.89.44,3.94,3.94,0,0,0-.73.61,2.34,2.34,0,0,0-.46.68l-7,15.43c-1,1.08-4.27,5.08-4.9,5.58s-1.5,1.2-2.36,1.91l-2.72,2.19c-1,.76-1.91,1.46-2.86,2.1a26.07,26.07,0,0,1-3.56,2,10.47,10.47,0,0,1-3.26,1.07,4.38,4.38,0,0,1-3.5-1,4.47,4.47,0,0,1-1.23-3,12.63,12.63,0,0,1,.35-3.53,28.38,28.38,0,0,1,1.31-4.1,43.94,43.94,0,0,1,2.07-4.37c.81-1.48,1.67-2.91,2.6-4.29s1.89-2.68,2.89-3.91a34.34,34.34,0,0,1,3-3.24A17.19,17.19,0,0,1,121,57.52a5.71,5.71,0,0,1,2.53-.9,1.46,1.46,0,0,1,1.26.38,2,2,0,0,1,.44,1.21,3.72,3.72,0,0,1-.22,1.4,11.39,11.39,0,0,1-.66,1.61,12.54,12.54,0,0,1-.91,1.59c-.34.51-.66,1-1,1.33a4.17,4.17,0,0,0-.57,1,2.23,2.23,0,0,0-.12.75,1.09,1.09,0,0,0,.33.76,1.68,1.68,0,0,0,.69.39,3.05,3.05,0,0,0,.78.14h.62a3.77,3.77,0,0,0,1.91-.65,7.19,7.19,0,0,0,1.58-1.5A11.06,11.06,0,0,0,129,63a19.43,19.43,0,0,0,.88-2.23,14.42,14.42,0,0,0,.52-2.14,8,8,0,0,0,.12-1.74,5.24,5.24,0,0,0-.58-2.21,3.87,3.87,0,0,0-1.29-1.4,5,5,0,0,0-1.82-.7,8.8,8.8,0,0,0-2.13-.11,13.34,13.34,0,0,0-4.54,1.13,23.71,23.71,0,0,0-4.5,2.63,33.91,33.91,0,0,0-4.28,3.79,43.3,43.3,0,0,0-3.88,4.62,47.62,47.62,0,0,0-3.27,5.15,43.73,43.73,0,0,0-2.49,5.32,32.19,32.19,0,0,0-1.53,5.19A18.65,18.65,0,0,0,99.81,85a10.07,10.07,0,0,0,.72,3.19,6.39,6.39,0,0,0,1.8,2.43,7.67,7.67,0,0,0,3,1.48,13.37,13.37,0,0,0,4.25.33,16.71,16.71,0,0,0,4.87-1.22,30.14,30.14,0,0,0,4.5-2.12,26.06,26.06,0,0,0,3.2-2.25c1-.81,1.84-1.58,2.59-2.32l.31-.31c-.4.91-.77,1.77-1.08,2.53a12.31,12.31,0,0,0-.62,1.7,4.24,4.24,0,0,0-.15,1.29,2,2,0,0,0,.57,1.35,1.88,1.88,0,0,0,1.46.48,2,2,0,0,0,1.11-.43,4.89,4.89,0,0,0,1-1,10.77,10.77,0,0,0,.88-1.44c.27-.53.54-1.07.79-1.62s.49-1.07.72-1.59.46-1,.69-1.38c.51-.89,1.06-1.82,1.66-2.8A21,21,0,0,1,134,78.6a10.68,10.68,0,0,1,2.35-2.08,5.69,5.69,0,0,1,2.86-.91.85.85,0,0,1,.68.22,1,1,0,0,1,.24.64,2,2,0,0,1-.13.85,6.57,6.57,0,0,1-.45.86,23.08,23.08,0,0,1-1.26,2.12c-.48.72-.93,1.47-1.35,2.24a15.66,15.66,0,0,0-1,2.39,7,7,0,0,0-.34,2.59,3.19,3.19,0,0,0,1.26,2.67,4.9,4.9,0,0,0,3.07.72,9.17,9.17,0,0,0,3-.67,16.66,16.66,0,0,0,3-1.58,31.81,31.81,0,0,0,2.85-2.12,4.06,4.06,0,0,0,1.3,2.85,4.93,4.93,0,0,0,3.42,1,8,8,0,0,0,3-.69A16.17,16.17,0,0,0,159.3,88a23.56,23.56,0,0,0,2.32-1.9c0,.07,0,.15,0,.22a5.79,5.79,0,0,0,.23,1.46,2.86,2.86,0,0,0,.65,1.17,3,3,0,0,0,1.19.77,5,5,0,0,0,1.83.24,9.42,9.42,0,0,0,3.27-.72,19.33,19.33,0,0,0,3.35-1.81,35.71,35.71,0,0,0,3.38-2.58l.37-.33a4.84,4.84,0,0,0,.58,2.29,5.22,5.22,0,0,0,1.41,1.63,5.37,5.37,0,0,0,1.75.89,5.81,5.81,0,0,0,1.61.26,6.23,6.23,0,0,0,2.66-.67,12.24,12.24,0,0,0,2.51-1.63,19.1,19.1,0,0,0,2.23-2.18c.68-.8,1.3-1.58,1.84-2.33a4.71,4.71,0,0,0-.26,1,10,10,0,0,0-.06,1.1,6.59,6.59,0,0,0,.24,1.66,4.54,4.54,0,0,0,.67,1.44,3.53,3.53,0,0,0,1.12,1,3.11,3.11,0,0,0,1.6.38,5.73,5.73,0,0,0,2.2-.53,16.81,16.81,0,0,0,2.36-1.29,25.42,25.42,0,0,0,2.34-1.75l.76-.66-.26.65a4.87,4.87,0,0,0-.37,1.46,2,2,0,0,0,.53,1.44,1.87,1.87,0,0,0,1.46.59,2.09,2.09,0,0,0,1.5-.57,6,6,0,0,0,1.08-1.43c.32-.58.63-1.2.92-1.86a16.59,16.59,0,0,1,1-1.88c.57-.86,1.23-1.85,2-2.94a27.34,27.34,0,0,1,2.45-3.12,14.38,14.38,0,0,1,2.86-2.48,5.7,5.7,0,0,1,3.23-1,.81.81,0,0,1,.68.28,1,1,0,0,1,.22.68,2.92,2.92,0,0,1-.35,1.17c-.23.48-.52,1-.86,1.63s-.73,1.26-1.14,1.94-.79,1.37-1.15,2.06a19,19,0,0,0-.94,2,6,6,0,0,0-.44,1.8c0,.15,0,.27,0,.39s0,.23,0,.36a3.29,3.29,0,0,0,.64,2.19,2.51,2.51,0,0,0,2.06.79,5.07,5.07,0,0,0,1-.11,12.17,12.17,0,0,0,1.27-.31,27.17,27.17,0,0,0,3.52-1.26,28.66,28.66,0,0,0,2.82-1.46q1.32-.78,2.58-1.68l1-.74a8.55,8.55,0,0,0,.22,1,6.9,6.9,0,0,0,1,2.1,4.92,4.92,0,0,0,1.53,1.39,4.13,4.13,0,0,0,2,.53,6.14,6.14,0,0,0,1.37-.17,8.49,8.49,0,0,0,1.7-.57,13.07,13.07,0,0,0,1.91-1,17.49,17.49,0,0,0,2-1.56l-3.37,4.14c-1.08,1.22-2.07,2.43-3,3.61a34.76,34.76,0,0,0-2.28,3.39,19.72,19.72,0,0,0-1.47,3,7.22,7.22,0,0,0-.55,2.46,2.64,2.64,0,0,0,.57,1.74,2,2,0,0,0,1.62.74,3.1,3.1,0,0,0,1.22-.19,2.71,2.71,0,0,0,1-.75,7.47,7.47,0,0,0,1.05-1.5,27,27,0,0,0,1.2-2.45l5.32-9.24a25.67,25.67,0,0,1,3.3-2.27c1.17-.68,2.34-1.29,3.5-1.84s2.28-1,3.35-1.5l.33-.14a5,5,0,0,0,.48,2.3,5.39,5.39,0,0,0,1.32,1.7,5.65,5.65,0,0,0,1.71,1,5.36,5.36,0,0,0,1.6.33,6.27,6.27,0,0,0,2.69-.53A13.06,13.06,0,0,0,262.69,88,18.25,18.25,0,0,0,265,85.91c.72-.76,1.37-1.51,2-2.24a4.3,4.3,0,0,0-.3,1,6.73,6.73,0,0,0-.12,1.1,6.23,6.23,0,0,0,.16,1.67,4.55,4.55,0,0,0,.6,1.47A3.52,3.52,0,0,0,268.38,90a3,3,0,0,0,1.58.45,5.79,5.79,0,0,0,2.22-.42,15.34,15.34,0,0,0,2.42-1.18A24.54,24.54,0,0,0,277,87.21c.79-.6,1.54-1.2,2.24-1.8s1.33-1.15,1.88-1.66,1-.92,1.32-1.21a1.64,1.64,0,0,0,.54-1.23A2,2,0,0,0,282.68,80.14Zm-92.4-2.55a15.25,15.25,0,0,1-1,1.69,22.28,22.28,0,0,1-1.41,1.92A19,19,0,0,1,186.25,83a10.93,10.93,0,0,1-1.6,1.35,2.64,2.64,0,0,1-1.36.54,2,2,0,0,1-1.19-.3,2.16,2.16,0,0,1-.68-.79,3.07,3.07,0,0,1-.33-1,10.55,10.55,0,0,1-.08-1.1,6.67,6.67,0,0,1,.5-2.6,8.41,8.41,0,0,1,1.4-2.34A7.45,7.45,0,0,1,185,75a5,5,0,0,1,2.41-.67,4.34,4.34,0,0,1,1,.13,4.11,4.11,0,0,1,1.09.42,3.11,3.11,0,0,1,.86.7,1.43,1.43,0,0,1,.36.91A2.79,2.79,0,0,1,190.28,77.59Zm52.17.15a15.67,15.67,0,0,1-1,1.57c-.43.58-.91,1.17-1.43,1.77a19.29,19.29,0,0,1-1.61,1.64A11.42,11.42,0,0,1,236.8,84a2.58,2.58,0,0,1-1.32.47,2.27,2.27,0,0,1-1.21-.3,1.86,1.86,0,0,1-.65-.72,2.66,2.66,0,0,1-.28-.92,7.59,7.59,0,0,1-.05-.92,7.38,7.38,0,0,1,.58-2.73,8,8,0,0,1,1.48-2.33,7.45,7.45,0,0,1,2.1-1.61,5.12,5.12,0,0,1,2.43-.58,3.36,3.36,0,0,1,.91.16,4,4,0,0,1,1,.46,3,3,0,0,1,.77.74,1.67,1.67,0,0,1,.3,1A2.45,2.45,0,0,1,242.45,77.74Zm22,4.21a19.84,19.84,0,0,1-1.69,1.73A10.82,10.82,0,0,1,261.09,85a2.65,2.65,0,0,1-1.39.48,2,2,0,0,1-1.17-.36,2.26,2.26,0,0,1-.65-.82,3.07,3.07,0,0,1-.27-1.06,10.31,10.31,0,0,1,0-1.1,6.68,6.68,0,0,1,.62-2.58,8.25,8.25,0,0,1,1.51-2.27,7.4,7.4,0,0,1,2.13-1.61,5,5,0,0,1,2.44-.56,4.43,4.43,0,0,1,2.05.66,2.6,2.6,0,0,1,.33.25,1,1,0,0,1,0,.25,11.21,11.21,0,0,1-.37,3.29.32.32,0,0,0,0,.09c-.12.16-.22.32-.35.49A21.76,21.76,0,0,1,264.44,82Z"/><path d="M43.91,0A43.5,43.5,0,0,0,18.13,78.84V73.23A38.87,38.87,0,0,1,4.4,43.58a39.5,39.5,0,0,1,79,0A38.94,38.94,0,0,1,69.66,73.25v5.59A43.5,43.5,0,0,0,43.91,0Z"/><path d="M69.66,69.36A36,36,0,0,0,80.47,43.58a36.57,36.57,0,0,0-73.14,0,36,36,0,0,0,10.8,25.78V62.67A31.53,31.53,0,0,1,11.7,43.58a32.19,32.19,0,0,1,64.37,0,31.52,31.52,0,0,1-6.41,19.09Z"/><path d="M73.16,43.58a29.27,29.27,0,0,0-58.53,0,28.62,28.62,0,0,0,3.5,13.74V52.84a4.35,4.35,0,0,1,1.6-3.39,24.85,24.85,0,1,1,49-5.87A23.77,23.77,0,0,1,68,49.45a4.33,4.33,0,0,1,1.62,3.39v4.44A28.24,28.24,0,0,0,73.16,43.58Z"/><path d="M43.91,21.78a21.85,21.85,0,0,0-22,21.8,21.18,21.18,0,0,0,.46,4.4l.47-.25,1.36-.68v-.33A4.39,4.39,0,0,1,26.35,43,17.37,17.37,0,0,1,32,30.75a.28.28,0,0,1,.08-.06,16.08,16.08,0,0,1,20.15-2.84,15.49,15.49,0,0,1,3.46,2.84q.09,0,.06.06A17.23,17.23,0,0,1,61.44,43a4.42,4.42,0,0,1,2.09,3.3,3.54,3.54,0,0,1,0,.46v.33l1.65.84.18.09a21.18,21.18,0,0,0,.46-4.4A21.85,21.85,0,0,0,43.91,21.78Z"/><path d="M56.4,42.47a12.51,12.51,0,1,0-25,0v1.87l-3.13,1.25v3.13L22,51.85V83.12h6.25V64.36h0a4.69,4.69,0,1,1,9.38,0v25h3.13l3.13,1.57L47,89.37h3.13v-25a4.69,4.69,0,1,1,9.37,0h0V83.12h6.25V51.85l-6.26-3.13V45.59L56.4,44.34Z"/></g></g></svg>